# xmcd
#
# Track frame offsets:
#	150
#	13472
#	25528
#	37631
#	50000
#	63066
#	80612
#	93515
#
# Disc length: 1551 seconds
#
# Revision: 1
# Processed by: cddbd v1.5.2PL0 Copyright (c) Steve Scherf et al.
# Submitted via: audiograbber 1.83.01
#
DISCID=57060d08
DTITLE=Hats-On! - Songs to Go
DYEAR=2007
DGENRE=Country Rock
TTITLE0=On the road again
TTITLE1=Get Rythm
TTITLE2=Whiskey ain't working
TTITLE3=Have you ever seen the rain
TTITLE4=Bad case of loving you
TTITLE5=I love Rock'n'Roll
TTITLE6=Ring of Fire
TTITLE7=What's up
EXTD=
EXTT0=
EXTT1=
EXTT2=
EXTT3=
EXTT4=
EXTT5=
EXTT6=
EXTT7=
PLAYORDER=
